<?xml version="1.0" encoding="UTF-8"?>
<svg xmlns="http://www.w3.org/2000/svg" viewBox="0 0 480 300" width="480" height="300">
  <rect width="480" height="300" fill="#f7f9fb"/>
  <text x="24" y="34" fill="#0d1b2a" font-family="Fraunces" font-size="18" font-weight="600">Progress · 14-day streak</text>

  <!-- streak heatmap -->
  <g>
    <rect x="24" y="58" width="432" height="60" rx="12" fill="#fff" stroke="#e9edf2"/>
    <!-- 14 cells -->
    <g transform="translate(40,72)">
      <g font-family="Plus Jakarta Sans" font-size="9" fill="#8696b0">
        <rect x="0"   y="0" width="24" height="24" rx="4" fill="#288bd5"/>
        <rect x="28"  y="0" width="24" height="24" rx="4" fill="#288bd5"/>
        <rect x="56"  y="0" width="24" height="24" rx="4" fill="#5aa3d3"/>
        <rect x="84"  y="0" width="24" height="24" rx="4" fill="#288bd5"/>
        <rect x="112" y="0" width="24" height="24" rx="4" fill="#288bd5"/>
        <rect x="140" y="0" width="24" height="24" rx="4" fill="#1a5a8f"/>
        <rect x="168" y="0" width="24" height="24" rx="4" fill="#288bd5"/>
        <rect x="196" y="0" width="24" height="24" rx="4" fill="#5aa3d3"/>
        <rect x="224" y="0" width="24" height="24" rx="4" fill="#288bd5"/>
        <rect x="252" y="0" width="24" height="24" rx="4" fill="#288bd5"/>
        <rect x="280" y="0" width="24" height="24" rx="4" fill="#288bd5"/>
        <rect x="308" y="0" width="24" height="24" rx="4" fill="#5aa3d3"/>
        <rect x="336" y="0" width="24" height="24" rx="4" fill="#288bd5"/>
        <rect x="364" y="0" width="24" height="24" rx="4" fill="#288bd5" stroke="#1a5a8f" stroke-width="2"/>
      </g>
    </g>
  </g>

  <!-- weekly chart -->
  <text x="24" y="148" fill="#0d1b2a" font-family="Plus Jakarta Sans" font-size="13" font-weight="600">This week · KDG points</text>

  <g transform="translate(24,164)">
    <rect x="0" y="0" width="432" height="120" rx="12" fill="#fff" stroke="#e9edf2"/>
    <g transform="translate(20,16)">
      <!-- bars -->
      <g>
        <rect x="0"   y="40" width="32" height="56" rx="4" fill="#dbecf7"/>
        <rect x="0"   y="60" width="32" height="36" rx="4" fill="#288bd5"/>
        <rect x="48"  y="20" width="32" height="76" rx="4" fill="#dbecf7"/>
        <rect x="48"  y="44" width="32" height="52" rx="4" fill="#288bd5"/>
        <rect x="96"  y="32" width="32" height="64" rx="4" fill="#dbecf7"/>
        <rect x="96"  y="52" width="32" height="44" rx="4" fill="#288bd5"/>
        <rect x="144" y="12" width="32" height="84" rx="4" fill="#dbecf7"/>
        <rect x="144" y="36" width="32" height="60" rx="4" fill="#288bd5"/>
        <rect x="192" y="24" width="32" height="72" rx="4" fill="#dbecf7"/>
        <rect x="192" y="48" width="32" height="48" rx="4" fill="#288bd5"/>
        <rect x="240" y="36" width="32" height="60" rx="4" fill="#dbecf7"/>
        <rect x="240" y="56" width="32" height="40" rx="4" fill="#288bd5"/>
        <rect x="288" y="20" width="32" height="76" rx="4" fill="#dbecf7"/>
        <rect x="288" y="40" width="32" height="56" rx="4" fill="#288bd5"/>
      </g>
      <g font-family="Plus Jakarta Sans" font-size="10" fill="#8696b0" text-anchor="middle">
        <text x="16"  y="110">M</text>
        <text x="64"  y="110">T</text>
        <text x="112" y="110">W</text>
        <text x="160" y="110">T</text>
        <text x="208" y="110">F</text>
        <text x="256" y="110">S</text>
        <text x="304" y="110">S</text>
      </g>
    </g>
  </g>
</svg>
